<svg xmlns="http://www.w3.org/2000/svg" xmlns:xlink="http://www.w3.org/1999/xlink" width="302" zoomAndPan="magnify" viewBox="0 0 226.5 258.749997" height="345" preserveAspectRatio="xMidYMid meet" version="1.0"><path fill="#ffffff" d="M 91.679688 15.816406 C 85.300781 18.046875 81.136719 23.394531 77.914062 33.488281 C 75.3125 41.644531 72.203125 46.117188 67.449219 48.542969 C 65.945312 49.3125 61.183594 51.335938 56.867188 53.042969 C 40.933594 59.34375 32.765625 66.09375 30.023438 75.242188 C 28.332031 80.882812 28.742188 83.109375 32.320312 87.699219 C 36.308594 92.8125 36.335938 93.648438 32.871094 104.402344 C 27.75 120.289062 28.53125 128.894531 35.777344 136.394531 C 41.761719 142.589844 45.304688 143.65625 56.148438 142.527344 C 61.507812 141.972656 61.886719 142.035156 64.042969 143.847656 C 65.285156 144.894531 67.269531 147.546875 68.453125 149.742188 C 73.984375 160.015625 81.027344 168.367188 86.527344 171.171875 C 88.925781 172.394531 90.992188 175.035156 98.300781 186.207031 L 107.164062 199.757812 L 106.617188 223.332031 L 106.066406 246.902344 L 122.855469 246.902344 L 122.4375 242.226562 C 122.210938 239.652344 121.8125 229.761719 121.554688 220.246094 L 121.085938 202.945312 L 129.492188 189.566406 C 138.582031 175.09375 139.816406 173.394531 140.78125 173.992188 C 141.953125 174.714844 150.757812 172.703125 154.816406 170.78125 C 157.023438 169.738281 161.152344 166.691406 163.988281 164.015625 C 170.488281 157.886719 173.578125 151.84375 176.660156 139.234375 C 179.453125 127.816406 180.785156 125.144531 185.726562 121.042969 C 197.769531 111.050781 198.289062 108.355469 191.363281 91.910156 C 189.5625 87.636719 186.988281 81.328125 185.644531 77.894531 C 184.300781 74.464844 181.832031 69.242188 180.160156 66.296875 C 174.835938 56.910156 174.175781 54.859375 173.621094 45.972656 C 173.230469 39.75 172.710938 36.96875 171.488281 34.578125 C 168.964844 29.648438 165.695312 26.40625 160.734375 23.929688 C 154.484375 20.804688 149.941406 20.820312 140.070312 23.949219 C 132.175781 26.542969 130.570312 26.628906 127.140625 25.230469 C 120.84375 22.453125 114.078125 20.953125 109.421875 21.902344 C 105.972656 22.613281 100.644531 13.898438 91.679688 15.816406 Z M 99.855469 38.5625 C 104.632812 37.273438 108.796875 38.574219 111.164062 41.820312 C 112.734375 43.980469 112.730469 43.988281 111.378906 45.359375 C 109.640625 47.109375 109.285156 47.097656 107.210938 45.414062 C 103.316406 42.128906 97.929688 42.167969 95.28125 45.488281 C 93.914062 47.328125 93.855469 47.375 91.890625 46.753906 C 90.710938 46.421875 90.1875 45.890625 90.667969 45.078125 C 91.875 43.078125 94.914062 39.476562 99.855469 38.5625 Z M 123.832031 71.9375 C 128.199219 70.558594 132.105469 71.199219 134.871094 73.542969 C 136.730469 75.078125 136.75 75.117188 134.875 76.960938 C 133.15625 78.636719 132.839844 78.578125 131.179688 76.667969 C 128.445312 73.492188 123.394531 72.511719 119.964844 74.539062 C 117.832031 75.851562 117.789062 75.894531 115.886719 74.734375 C 114.558594 73.9375 114.382812 73.566406 115.566406 71.90625 C 117.644531 69.011719 120.128906 72.632812 123.832031 71.9375 Z " transform="matrix(1,0,0,1,0,0)"/></svg>
